<svg width="169" height="43" viewBox="0 0 169 43" fill="none" xmlns="http://www.w3.org/2000/svg">
<mask id="path-1-inside-1_3492_1185" fill="white">
<path fill-rule="evenodd" clip-rule="evenodd" d="M95.8225 41.403C95.0644 40.7965 94.4579 39.7351 94.1546 39.1286L96.5806 38.0673C96.7322 38.3705 97.0355 38.8254 97.3387 39.2803C97.9452 39.8868 98.855 40.4933 99.7647 40.4933C100.674 40.4933 101.736 40.0384 102.342 39.2803C102.797 38.5221 103.1 37.764 103.1 36.7026V35.7929C101.281 38.0673 97.4903 37.764 95.3676 35.338C93.0932 32.912 93.0932 28.8182 95.3676 26.3922C97.642 24.1178 100.978 23.8145 102.949 25.9373V24.8759H105.526V36.2478C105.526 39.1286 104.465 40.7965 103.1 41.8579C102.191 42.616 100.826 42.9193 99.6131 42.9193C98.2485 42.7676 96.8839 42.3128 95.8225 41.403ZM159.353 42.0095L161.931 35.9445L157.382 25.4824H159.96L163.144 32.912L166.328 25.4824H168.906L161.931 42.0095H159.353ZM147.072 36.2478C146.314 35.4896 146.01 34.4283 146.01 33.3669C146.01 32.4571 146.313 31.5474 146.92 30.9409C147.981 29.8795 149.498 29.4247 151.166 29.4247C152.227 29.4247 153.137 29.5763 153.895 30.0312C153.895 28.2117 152.379 27.4535 151.166 27.4535C150.104 27.4535 149.043 28.06 148.588 29.1214L146.314 28.2117C146.768 27.1503 147.981 25.1792 151.014 25.1792C152.53 25.1792 154.046 25.634 154.956 26.6954C155.866 27.7568 156.169 28.9698 156.169 30.6377V37.0059H153.592V35.9445C153.288 36.3994 152.682 36.7026 152.227 37.0059C151.62 37.3091 150.862 37.4608 150.104 37.4608C149.194 37.3091 147.83 37.0059 147.072 36.2478ZM66.2557 30.7893C66.2557 27.7568 68.53 24.421 72.6239 24.421C76.5661 24.421 78.9921 27.7568 78.9921 30.7893C78.9921 33.8218 76.7178 37.1575 72.6239 37.1575C68.53 37.1575 66.2557 33.8218 66.2557 30.7893ZM79.9019 30.7893C79.9019 27.7568 82.1763 24.421 86.2701 24.421C90.2124 24.421 92.6384 27.7568 92.6384 30.7893C92.6384 33.8218 90.364 37.1575 86.2701 37.1575C82.3279 37.1575 79.9019 33.8218 79.9019 30.7893ZM49.1221 34.125C45.3314 30.3344 45.483 24.1178 49.2737 20.1755C51.2448 18.2044 53.6708 17.2947 56.2484 17.2947C58.6744 17.2947 61.1004 18.2044 62.9199 20.0239L61.1004 21.995C58.3712 19.2658 53.974 19.4174 51.3964 22.1467C48.6672 25.0275 48.6672 29.4247 51.3964 32.3055C54.1257 35.1864 58.6744 35.338 61.4036 32.4572C62.3134 31.5474 62.6167 30.3344 62.7683 29.1214H56.4V26.3922H65.3459C65.4975 26.9987 65.4975 27.7568 65.4975 28.5149C65.4975 30.7893 64.5878 33.0637 63.0715 34.5799C61.4037 36.2478 58.9777 37.1575 56.5517 37.1575C53.8224 37.0059 51.0932 36.0961 49.1221 34.125ZM113.259 35.1864C110.985 32.7604 110.985 28.6665 113.259 26.0889C115.534 23.6629 119.324 23.6629 121.447 26.0889C122.205 26.847 122.66 27.9084 123.115 28.9698L114.776 32.4572C115.23 33.5185 116.292 34.4283 117.808 34.4283C119.173 34.4283 120.082 33.9734 120.992 32.6088L123.267 34.125C122.963 34.4283 122.66 34.7315 122.508 35.0348C119.931 37.6124 115.534 37.6124 113.259 35.1864ZM129.028 37.0059V20.1755H134.487C137.671 20.1755 140.249 22.4499 140.249 25.1792C140.249 27.9084 137.974 30.1828 135.093 30.1828H131.758V36.8543H129.028V37.0059ZM141.765 37.0059V20.1755H144.342V37.0059H141.765ZM107.498 36.7026V17.9012H110.227V36.7026H107.498ZM153.743 32.0023C153.137 31.5474 152.227 31.3958 151.317 31.3958C149.498 31.3958 148.436 32.3055 148.436 33.3669C148.436 34.4283 149.498 35.0348 150.559 35.0348C152.075 35.0348 153.743 33.8218 153.743 32.0023ZM76.1113 30.7893C76.1113 28.9698 74.8983 26.9987 72.6239 26.9987C70.3495 26.9987 69.1365 28.9698 69.1365 30.7893C69.1365 32.6088 70.3495 34.5799 72.6239 34.5799C74.7466 34.5799 76.1113 32.6088 76.1113 30.7893ZM89.7575 30.7893C89.7575 28.9698 88.5445 26.9987 86.2701 26.9987C83.9958 26.9987 82.7827 28.9698 82.7827 30.7893C82.7827 32.6088 83.9958 34.5799 86.2701 34.5799C88.5445 34.5799 89.7575 32.6088 89.7575 30.7893ZM103.252 31.8507C103.252 31.699 103.252 31.5474 103.404 31.3958C103.404 31.2442 103.404 30.9409 103.404 30.7893C103.404 30.6377 103.404 30.3344 103.404 30.1828V30.0312C103.404 29.8795 103.252 29.5763 103.252 29.4247C102.797 27.9084 101.433 26.847 100.068 26.847C98.2485 26.847 96.7322 28.6665 96.7322 30.6377C96.7322 32.7604 98.2485 34.4283 100.22 34.4283C101.433 34.5799 102.646 33.5185 103.252 31.8507ZM114.321 30.486L119.931 28.06C119.324 26.9987 118.415 26.6954 117.656 26.6954C115.382 26.847 114.017 29.273 114.321 30.486ZM137.519 25.3308C137.519 23.8145 136.306 22.7532 134.638 22.7532H131.606V28.06H134.79C136.306 28.06 137.519 26.847 137.519 25.3308Z"/>
</mask>
<path fill-rule="evenodd" clip-rule="evenodd" d="M95.8225 41.403C95.0644 40.7965 94.4579 39.7351 94.1546 39.1286L96.5806 38.0673C96.7322 38.3705 97.0355 38.8254 97.3387 39.2803C97.9452 39.8868 98.855 40.4933 99.7647 40.4933C100.674 40.4933 101.736 40.0384 102.342 39.2803C102.797 38.5221 103.1 37.764 103.1 36.7026V35.7929C101.281 38.0673 97.4903 37.764 95.3676 35.338C93.0932 32.912 93.0932 28.8182 95.3676 26.3922C97.642 24.1178 100.978 23.8145 102.949 25.9373V24.8759H105.526V36.2478C105.526 39.1286 104.465 40.7965 103.1 41.8579C102.191 42.616 100.826 42.9193 99.6131 42.9193C98.2485 42.7676 96.8839 42.3128 95.8225 41.403ZM159.353 42.0095L161.931 35.9445L157.382 25.4824H159.96L163.144 32.912L166.328 25.4824H168.906L161.931 42.0095H159.353ZM147.072 36.2478C146.314 35.4896 146.01 34.4283 146.01 33.3669C146.01 32.4571 146.313 31.5474 146.92 30.9409C147.981 29.8795 149.498 29.4247 151.166 29.4247C152.227 29.4247 153.137 29.5763 153.895 30.0312C153.895 28.2117 152.379 27.4535 151.166 27.4535C150.104 27.4535 149.043 28.06 148.588 29.1214L146.314 28.2117C146.768 27.1503 147.981 25.1792 151.014 25.1792C152.53 25.1792 154.046 25.634 154.956 26.6954C155.866 27.7568 156.169 28.9698 156.169 30.6377V37.0059H153.592V35.9445C153.288 36.3994 152.682 36.7026 152.227 37.0059C151.62 37.3091 150.862 37.4608 150.104 37.4608C149.194 37.3091 147.83 37.0059 147.072 36.2478ZM66.2557 30.7893C66.2557 27.7568 68.53 24.421 72.6239 24.421C76.5661 24.421 78.9921 27.7568 78.9921 30.7893C78.9921 33.8218 76.7178 37.1575 72.6239 37.1575C68.53 37.1575 66.2557 33.8218 66.2557 30.7893ZM79.9019 30.7893C79.9019 27.7568 82.1763 24.421 86.2701 24.421C90.2124 24.421 92.6384 27.7568 92.6384 30.7893C92.6384 33.8218 90.364 37.1575 86.2701 37.1575C82.3279 37.1575 79.9019 33.8218 79.9019 30.7893ZM49.1221 34.125C45.3314 30.3344 45.483 24.1178 49.2737 20.1755C51.2448 18.2044 53.6708 17.2947 56.2484 17.2947C58.6744 17.2947 61.1004 18.2044 62.9199 20.0239L61.1004 21.995C58.3712 19.2658 53.974 19.4174 51.3964 22.1467C48.6672 25.0275 48.6672 29.4247 51.3964 32.3055C54.1257 35.1864 58.6744 35.338 61.4036 32.4572C62.3134 31.5474 62.6167 30.3344 62.7683 29.1214H56.4V26.3922H65.3459C65.4975 26.9987 65.4975 27.7568 65.4975 28.5149C65.4975 30.7893 64.5878 33.0637 63.0715 34.5799C61.4037 36.2478 58.9777 37.1575 56.5517 37.1575C53.8224 37.0059 51.0932 36.0961 49.1221 34.125ZM113.259 35.1864C110.985 32.7604 110.985 28.6665 113.259 26.0889C115.534 23.6629 119.324 23.6629 121.447 26.0889C122.205 26.847 122.66 27.9084 123.115 28.9698L114.776 32.4572C115.23 33.5185 116.292 34.4283 117.808 34.4283C119.173 34.4283 120.082 33.9734 120.992 32.6088L123.267 34.125C122.963 34.4283 122.66 34.7315 122.508 35.0348C119.931 37.6124 115.534 37.6124 113.259 35.1864ZM129.028 37.0059V20.1755H134.487C137.671 20.1755 140.249 22.4499 140.249 25.1792C140.249 27.9084 137.974 30.1828 135.093 30.1828H131.758V36.8543H129.028V37.0059ZM141.765 37.0059V20.1755H144.342V37.0059H141.765ZM107.498 36.7026V17.9012H110.227V36.7026H107.498ZM153.743 32.0023C153.137 31.5474 152.227 31.3958 151.317 31.3958C149.498 31.3958 148.436 32.3055 148.436 33.3669C148.436 34.4283 149.498 35.0348 150.559 35.0348C152.075 35.0348 153.743 33.8218 153.743 32.0023ZM76.1113 30.7893C76.1113 28.9698 74.8983 26.9987 72.6239 26.9987C70.3495 26.9987 69.1365 28.9698 69.1365 30.7893C69.1365 32.6088 70.3495 34.5799 72.6239 34.5799C74.7466 34.5799 76.1113 32.6088 76.1113 30.7893ZM89.7575 30.7893C89.7575 28.9698 88.5445 26.9987 86.2701 26.9987C83.9958 26.9987 82.7827 28.9698 82.7827 30.7893C82.7827 32.6088 83.9958 34.5799 86.2701 34.5799C88.5445 34.5799 89.7575 32.6088 89.7575 30.7893ZM103.252 31.8507C103.252 31.699 103.252 31.5474 103.404 31.3958C103.404 31.2442 103.404 30.9409 103.404 30.7893C103.404 30.6377 103.404 30.3344 103.404 30.1828V30.0312C103.404 29.8795 103.252 29.5763 103.252 29.4247C102.797 27.9084 101.433 26.847 100.068 26.847C98.2485 26.847 96.7322 28.6665 96.7322 30.6377C96.7322 32.7604 98.2485 34.4283 100.22 34.4283C101.433 34.5799 102.646 33.5185 103.252 31.8507ZM114.321 30.486L119.931 28.06C119.324 26.9987 118.415 26.6954 117.656 26.6954C115.382 26.847 114.017 29.273 114.321 30.486ZM137.519 25.3308C137.519 23.8145 136.306 22.7532 134.638 22.7532H131.606V28.06H134.79C136.306 28.06 137.519 26.847 137.519 25.3308Z" fill="#252B33" stroke="black" stroke-width="0.6" mask="url(#path-1-inside-1_3492_1185)"/>
<path d="M53.3675 6.22768H51.0915V5.16306H54.8854V8.14226C54.1555 8.99282 52.9996 9.56343 51.548 9.56343C49.0464 9.56343 47.1493 7.80443 47.1493 5.31631C47.1493 3.98968 47.6274 2.93067 48.3915 2.2029C49.1568 1.47407 50.2178 1.06919 51.3964 1.06919C52.9392 1.06919 53.9392 1.73621 54.6671 2.69722L53.7051 3.29845C53.2152 2.70976 52.4419 2.28544 51.3964 2.28544C50.5249 2.28544 49.7647 2.60305 49.2225 3.16525C48.6806 3.72722 48.3655 4.52423 48.3655 5.46793C48.3655 6.41164 48.6806 7.20864 49.2225 7.77061C49.7647 8.33281 50.5249 8.65043 51.3964 8.65043C52.3513 8.65043 53.1462 8.17572 53.4736 7.84837L53.5175 7.80444V7.7423V6.37768V6.22768H53.3675Z" fill="#252B33" stroke="black" stroke-width="0.3"/>
<path d="M58.2196 8.49904H62.4667V9.55966L57.005 9.41593V1.22104H62.4667V2.28567H58.2196H58.0696V2.43567V4.55842V4.70842H58.2196H62.3151V5.77304H58.2196H58.0696V5.92304V8.34904V8.49904H58.2196Z" fill="#252B33" stroke="black" stroke-width="0.3"/>
<path d="M68.2283 2.43567V9.41203H67.012V2.43567V2.28567H66.862H64.4344V1.22104H70.8059V2.28567H68.3783H68.2283V2.43567Z" fill="#252B33" stroke="black" stroke-width="0.3"/>
<path d="M76.2613 9.41203V1.22104H77.4776V9.41203H76.2613Z" fill="#252B33" stroke="black" stroke-width="0.3"/>
<path d="M83.0877 2.43567V9.41203H81.8714V2.43567V2.28567H81.7214H79.2938V1.22104H85.6653V2.28567H83.2377H83.0877V2.43567Z" fill="#252B33" stroke="black" stroke-width="0.3"/>
<path d="M90.8172 5.31631C90.8172 4.06374 91.2587 3.00375 92.0053 2.25721C92.7518 1.51067 93.8118 1.06919 95.0644 1.06919C96.3169 1.06919 97.3769 1.51067 98.1235 2.25721C98.87 3.00375 99.3115 4.06374 99.3115 5.31631C99.3115 6.56887 98.87 7.62887 98.1235 8.37541C97.3769 9.12195 96.3169 9.56343 95.0644 9.56343C92.573 9.56343 90.8172 7.66289 90.8172 5.31631ZM97.9436 5.31631C97.9436 4.37795 97.6696 3.58022 97.1454 3.01568C96.6198 2.44969 95.8573 2.13381 94.9127 2.13381C93.1521 2.13381 91.8819 3.57587 91.8819 5.31631C91.8819 6.25466 92.1559 7.05239 92.6801 7.61693C93.2056 8.18292 93.9682 8.4988 94.9127 8.4988C95.8627 8.4988 96.6243 8.14129 97.1472 7.55814C97.6682 6.97695 97.9436 6.18141 97.9436 5.31631Z" fill="#252B33" stroke="black" stroke-width="0.3"/>
<path d="M107.193 6.98441V1.22104H108.409V9.41203H107.119L102.767 3.409L102.496 3.03459V3.49704V9.41203H101.279V1.22104H102.57L106.922 7.07392L107.193 7.43752V6.98441Z" fill="#252B33" stroke="black" stroke-width="0.3"/>
<path d="M0.15 4.00198C0.15 3.08924 0.392845 2.40775 0.79402 1.97244L0.800503 1.96696L19.4522 20.5983V20.8959L0.816829 39.5313L0.808315 39.5241C0.393945 39.1067 0.15 38.4277 0.15 37.5127V4.00198Z" fill="url(#paint0_linear_3492_1185)" stroke="black" stroke-width="0.3"/>
<path d="M25.8712 27.0512L19.7359 20.914V20.5999L25.8729 14.4629L25.907 14.4841L25.907 14.4842L25.9121 14.4871L33.322 18.6979L33.3225 18.6982C34.356 19.2808 34.8375 20.0307 34.8375 20.7508C34.8375 21.4711 34.3557 22.2252 33.3219 22.816C33.3219 22.816 33.3218 22.816 33.3217 22.8161L25.9145 27.0254L25.9112 27.0271L25.9035 27.0316L25.886 27.0421L25.8712 27.0512Z" fill="url(#paint1_linear_3492_1185)" stroke="black" stroke-width="0.3"/>
<path d="M0.902834 39.6524L19.5858 20.9695L25.7388 27.1245L3.76701 39.6223C3.76687 39.6224 3.76674 39.6225 3.7666 39.6225C2.5686 40.2913 1.53926 40.231 0.902834 39.6524Z" fill="url(#paint2_linear_3492_1185)" stroke="black" stroke-width="0.3"/>
<path d="M3.76604 1.91032L25.7387 14.3924L19.5837 20.5453L0.90282 1.88067C1.54024 1.29979 2.57165 1.22727 3.76567 1.91011L3.76604 1.91032Z" fill="url(#paint3_linear_3492_1185)" stroke="black" stroke-width="0.3"/>
<g opacity="0.2">
<mask id="path-13-inside-2_3492_1185" fill="white">
<path fill-rule="evenodd" clip-rule="evenodd" d="M25.8488 27.0222L3.85649 39.5176C2.62764 40.2241 1.53192 40.175 0.825332 39.5339L0.706543 39.6527L0.825332 39.7531C1.53192 40.3921 2.62764 40.4433 3.85649 39.7367L26.0003 27.1574L25.8488 27.0222Z"/>
</mask>
<path fill-rule="evenodd" clip-rule="evenodd" d="M25.8488 27.0222L3.85649 39.5176C2.62764 40.2241 1.53192 40.175 0.825332 39.5339L0.706543 39.6527L0.825332 39.7531C1.53192 40.3921 2.62764 40.4433 3.85649 39.7367L26.0003 27.1574L25.8488 27.0222Z" fill="#252B33"/>
<path d="M3.85649 39.5176L3.70829 39.2567L3.70695 39.2575L3.85649 39.5176ZM0.825332 39.5339L1.02691 39.3118L0.815265 39.1197L0.613199 39.3218L0.825332 39.5339ZM0.706543 39.6527L0.49441 39.4406L0.263686 39.6713L0.51294 39.8819L0.706543 39.6527ZM0.825332 39.7531L1.02667 39.5305L1.01893 39.5239L0.825332 39.7531ZM3.85649 39.7367L3.70831 39.4759L3.70695 39.4766L3.85649 39.7367ZM26.0003 27.1574L26.1485 27.4182L26.512 27.2118L26.2 26.9335L26.0003 27.1574ZM25.7006 26.7614L3.70829 39.2567L4.00469 39.7784L25.997 27.2831L25.7006 26.7614ZM3.70695 39.2575C2.54542 39.9254 1.60315 39.8345 1.02691 39.3118L0.623754 39.7561C1.46069 40.5154 2.70987 40.5229 4.00603 39.7776L3.70695 39.2575ZM0.613199 39.3218L0.49441 39.4406L0.918676 39.8649L1.03746 39.7461L0.613199 39.3218ZM0.51294 39.8819L0.631728 39.9823L1.01893 39.5239L0.900146 39.4236L0.51294 39.8819ZM0.624108 39.9756C1.46067 40.7321 2.70937 40.7424 4.00603 39.9968L3.70695 39.4766C2.54592 40.1442 1.60317 40.052 1.02655 39.5306L0.624108 39.9756ZM4.00467 39.9976L26.1485 27.4182L25.8522 26.8965L3.70831 39.4759L4.00467 39.9976ZM26.2 26.9335L26.0485 26.7983L25.6491 27.2461L25.8007 27.3813L26.2 26.9335Z" fill="black" mask="url(#path-13-inside-2_3492_1185)"/>
</g>
<g opacity="0.12">
<mask id="path-15-inside-3_3492_1185" fill="white">
<path fill-rule="evenodd" clip-rule="evenodd" d="M33.394 22.7276L25.8325 27.0224L25.9677 27.1576L33.3776 22.9467C34.4386 22.3405 34.9608 21.5499 34.9608 20.7573C34.8932 21.4823 34.3546 22.1725 33.394 22.7276Z"/>
</mask>
<path fill-rule="evenodd" clip-rule="evenodd" d="M33.394 22.7276L25.8325 27.0224L25.9677 27.1576L33.3776 22.9467C34.4386 22.3405 34.9608 21.5499 34.9608 20.7573C34.8932 21.4823 34.3546 22.1725 33.394 22.7276Z" fill="#252B33"/>
<path d="M25.8325 27.0224L25.6844 26.7615L25.3419 26.9561L25.6204 27.2345L25.8325 27.0224ZM25.9677 27.1576L25.7556 27.3697L25.9172 27.5313L26.1159 27.4184L25.9677 27.1576ZM33.3776 22.9467L33.5259 23.2076L33.5265 23.2072L33.3776 22.9467ZM34.9608 20.7573H35.2608L34.6621 20.7295L34.9608 20.7573ZM33.2459 22.4667L25.6844 26.7615L25.9807 27.2833L33.5422 22.9884L33.2459 22.4667ZM25.6204 27.2345L25.7556 27.3697L26.1798 26.9454L26.0447 26.8103L25.6204 27.2345ZM26.1159 27.4184L33.5259 23.2075L33.2294 22.6859L25.8195 26.8967L26.1159 27.4184ZM33.5265 23.2072C34.6423 22.5696 35.2608 21.6956 35.2608 20.7573H34.6608C34.6608 21.4042 34.2348 22.1114 33.2288 22.6862L33.5265 23.2072ZM34.6621 20.7295C34.6073 21.3174 34.1628 21.9369 33.2439 22.4678L33.5441 22.9873C34.5464 22.4082 35.1792 21.6473 35.2595 20.7852L34.6621 20.7295Z" fill="black" mask="url(#path-15-inside-3_3492_1185)"/>
</g>
<g opacity="0.25">
<mask id="path-17-inside-4_3492_1185" fill="white">
<path fill-rule="evenodd" clip-rule="evenodd" d="M3.84015 1.99867L33.394 18.7888C34.3545 19.3275 34.8932 20.0341 34.9771 20.7591C34.9771 19.9685 34.4549 19.1759 33.394 18.5697L3.84015 1.77952C1.71834 0.56706 0 1.57676 0 4.00169V4.22084C0 1.79591 1.71834 0.802589 3.84015 1.99867Z"/>
</mask>
<path fill-rule="evenodd" clip-rule="evenodd" d="M3.84015 1.99867L33.394 18.7888C34.3545 19.3275 34.8932 20.0341 34.9771 20.7591C34.9771 19.9685 34.4549 19.1759 33.394 18.5697L3.84015 1.77952C1.71834 0.56706 0 1.57676 0 4.00169V4.22084C0 1.79591 1.71834 0.802589 3.84015 1.99867Z" fill="white"/>
<path d="M3.84015 1.99867L3.98834 1.73782L3.98747 1.73733L3.84015 1.99867ZM33.394 18.7888L33.2458 19.0497L33.2472 19.0505L33.394 18.7888ZM34.9771 20.7591L34.6791 20.7936L35.2771 20.7591H34.9771ZM33.394 18.5697L33.5428 18.3092L33.5422 18.3088L33.394 18.5697ZM3.84015 1.77952L3.69131 2.04L3.69196 2.04037L3.84015 1.77952ZM3.69196 2.25951L33.2458 19.0497L33.5422 18.528L3.98834 1.73782L3.69196 2.25951ZM33.2472 19.0505C34.1588 19.5617 34.6101 20.1981 34.6791 20.7936L35.2751 20.7246C35.1762 19.8701 34.5502 19.0933 33.5407 18.5272L33.2472 19.0505ZM35.2771 20.7591C35.2771 19.8229 34.6588 18.9469 33.5428 18.3092L33.2451 18.8302C34.251 19.4049 34.6771 20.1141 34.6771 20.7591H35.2771ZM33.5422 18.3088L3.98834 1.51868L3.69196 2.04037L33.2458 18.8305L33.5422 18.3088ZM3.98899 1.51905C2.87224 0.880905 1.79272 0.790977 0.973604 1.26724C0.154755 1.74334 -0.3 2.72491 -0.3 4.00169H0.3C0.3 2.85354 0.704415 2.1178 1.27519 1.78593C1.84569 1.45423 2.68625 1.46568 3.69131 2.04L3.98899 1.51905ZM-0.3 4.00169V4.22084H0.3V4.00169H-0.3ZM0.3 4.22084C0.3 3.07294 0.704207 2.34153 1.27462 2.01155C1.84575 1.68116 2.6872 1.69312 3.69283 2.26001L3.98747 1.73733C2.87129 1.10813 1.79266 1.01871 0.974176 1.49219C0.154963 1.96609 -0.3 2.9438 -0.3 4.22084H0.3Z" fill="black" mask="url(#path-17-inside-4_3492_1185)"/>
</g>
<defs>
<linearGradient id="paint0_linear_3492_1185" x1="17.9161" y1="3.64177" x2="-12.1611" y2="11.6559" gradientUnits="userSpaceOnUse">
<stop stop-color="#00A0FF"/>
<stop offset="0.007" stop-color="#00A1FF"/>
<stop offset="0.26" stop-color="#00BEFF"/>
<stop offset="0.512" stop-color="#00D2FF"/>
<stop offset="0.76" stop-color="#00DFFF"/>
<stop offset="1" stop-color="#00E3FF"/>
</linearGradient>
<linearGradient id="paint1_linear_3492_1185" x1="36.1572" y1="20.7579" x2="-0.515546" y2="20.7579" gradientUnits="userSpaceOnUse">
<stop stop-color="#FFE000"/>
<stop offset="0.409" stop-color="#FFBD00"/>
<stop offset="0.775" stop-color="#FFA500"/>
<stop offset="1" stop-color="#FF9C00"/>
</linearGradient>
<linearGradient id="paint2_linear_3492_1185" x1="22.5048" y1="24.2391" x2="-1.64126" y2="64.8785" gradientUnits="userSpaceOnUse">
<stop stop-color="#FF3A44"/>
<stop offset="1" stop-color="#C31162"/>
</linearGradient>
<linearGradient id="paint3_linear_3492_1185" x1="-4.0663" y1="-9.28341" x2="6.706" y2="8.86681" gradientUnits="userSpaceOnUse">
<stop stop-color="#32A071"/>
<stop offset="0.069" stop-color="#2DA771"/>
<stop offset="0.476" stop-color="#15CF74"/>
<stop offset="0.801" stop-color="#06E775"/>
<stop offset="1" stop-color="#00F076"/>
</linearGradient>
</defs>
</svg>
