<svg width="205" height="60" viewBox="0 0 205 60" fill="none" xmlns="http://www.w3.org/2000/svg">
<rect x="0.15" y="0.15" width="204.7" height="59.7" rx="9.85" fill="white" stroke="black" stroke-width="0.3"/>
<mask id="path-2-inside-1_3492_1182" fill="white">
<path fill-rule="evenodd" clip-rule="evenodd" d="M113.822 50.403C113.064 49.7965 112.458 48.7351 112.155 48.1286L114.581 47.0673C114.732 47.3705 115.035 47.8254 115.339 48.2803C115.945 48.8868 116.855 49.4933 117.765 49.4933C118.674 49.4933 119.736 49.0384 120.342 48.2803C120.797 47.5221 121.1 46.764 121.1 45.7026V44.7929C119.281 47.0673 115.49 46.764 113.368 44.338C111.093 41.912 111.093 37.8182 113.368 35.3922C115.642 33.1178 118.978 32.8145 120.949 34.9373V33.8759H123.526V45.2478C123.526 48.1286 122.465 49.7965 121.1 50.8579C120.191 51.616 118.826 51.9193 117.613 51.9193C116.248 51.7676 114.884 51.3128 113.822 50.403ZM177.353 51.0095L179.931 44.9445L175.382 34.4824H177.96L181.144 41.912L184.328 34.4824H186.906L179.931 51.0095H177.353ZM165.072 45.2478C164.314 44.4896 164.01 43.4283 164.01 42.3669C164.01 41.4571 164.313 40.5474 164.92 39.9409C165.981 38.8795 167.498 38.4247 169.166 38.4247C170.227 38.4247 171.137 38.5763 171.895 39.0312C171.895 37.2117 170.379 36.4535 169.166 36.4535C168.104 36.4535 167.043 37.06 166.588 38.1214L164.314 37.2117C164.768 36.1503 165.981 34.1792 169.014 34.1792C170.53 34.1792 172.046 34.634 172.956 35.6954C173.866 36.7568 174.169 37.9698 174.169 39.6377V46.0059H171.592V44.9445C171.288 45.3994 170.682 45.7026 170.227 46.0059C169.62 46.3091 168.862 46.4608 168.104 46.4608C167.194 46.3091 165.83 46.0059 165.072 45.2478ZM84.2557 39.7893C84.2557 36.7568 86.53 33.421 90.6239 33.421C94.5661 33.421 96.9921 36.7568 96.9921 39.7893C96.9921 42.8218 94.7178 46.1575 90.6239 46.1575C86.53 46.1575 84.2557 42.8218 84.2557 39.7893ZM97.9019 39.7893C97.9019 36.7568 100.176 33.421 104.27 33.421C108.212 33.421 110.638 36.7568 110.638 39.7893C110.638 42.8218 108.364 46.1575 104.27 46.1575C100.328 46.1575 97.9019 42.8218 97.9019 39.7893ZM67.1221 43.125C63.3314 39.3344 63.483 33.1178 67.2737 29.1755C69.2448 27.2044 71.6708 26.2947 74.2484 26.2947C76.6744 26.2947 79.1004 27.2044 80.9199 29.0239L79.1004 30.995C76.3712 28.2658 71.974 28.4174 69.3964 31.1467C66.6672 34.0275 66.6672 38.4247 69.3964 41.3055C72.1257 44.1864 76.6744 44.338 79.4036 41.4572C80.3134 40.5474 80.6167 39.3344 80.7683 38.1214H74.4V35.3922H83.3459C83.4975 35.9987 83.4975 36.7568 83.4975 37.5149C83.4975 39.7893 82.5878 42.0637 81.0715 43.5799C79.4037 45.2478 76.9777 46.1575 74.5517 46.1575C71.8224 46.0059 69.0932 45.0961 67.1221 43.125ZM131.259 44.1864C128.985 41.7604 128.985 37.6665 131.259 35.0889C133.534 32.6629 137.324 32.6629 139.447 35.0889C140.205 35.847 140.66 36.9084 141.115 37.9698L132.776 41.4572C133.23 42.5185 134.292 43.4283 135.808 43.4283C137.173 43.4283 138.082 42.9734 138.992 41.6088L141.267 43.125C140.963 43.4283 140.66 43.7315 140.508 44.0348C137.931 46.6124 133.534 46.6124 131.259 44.1864ZM147.028 46.0059V29.1755H152.487C155.671 29.1755 158.249 31.4499 158.249 34.1792C158.249 36.9084 155.974 39.1828 153.093 39.1828H149.758V45.8543H147.028V46.0059ZM159.765 46.0059V29.1755H162.342V46.0059H159.765ZM125.498 45.7026V26.9012H128.227V45.7026H125.498ZM171.743 41.0023C171.137 40.5474 170.227 40.3958 169.317 40.3958C167.498 40.3958 166.436 41.3055 166.436 42.3669C166.436 43.4283 167.498 44.0348 168.559 44.0348C170.075 44.0348 171.743 42.8218 171.743 41.0023ZM94.1113 39.7893C94.1113 37.9698 92.8983 35.9987 90.6239 35.9987C88.3495 35.9987 87.1365 37.9698 87.1365 39.7893C87.1365 41.6088 88.3495 43.5799 90.6239 43.5799C92.7466 43.5799 94.1113 41.6088 94.1113 39.7893ZM107.757 39.7893C107.757 37.9698 106.544 35.9987 104.27 35.9987C101.996 35.9987 100.783 37.9698 100.783 39.7893C100.783 41.6088 101.996 43.5799 104.27 43.5799C106.544 43.5799 107.757 41.6088 107.757 39.7893ZM121.252 40.8507C121.252 40.699 121.252 40.5474 121.404 40.3958C121.404 40.2442 121.404 39.9409 121.404 39.7893C121.404 39.6377 121.404 39.3344 121.404 39.1828V39.0312C121.404 38.8795 121.252 38.5763 121.252 38.4247C120.797 36.9084 119.433 35.847 118.068 35.847C116.248 35.847 114.732 37.6665 114.732 39.6377C114.732 41.7604 116.248 43.4283 118.22 43.4283C119.433 43.5799 120.646 42.5185 121.252 40.8507ZM132.321 39.486L137.931 37.06C137.324 35.9987 136.415 35.6954 135.656 35.6954C133.382 35.847 132.017 38.273 132.321 39.486ZM155.519 34.3308C155.519 32.8145 154.306 31.7532 152.638 31.7532H149.606V37.06H152.79C154.306 37.06 155.519 35.847 155.519 34.3308Z"/>
</mask>
<path fill-rule="evenodd" clip-rule="evenodd" d="M113.822 50.403C113.064 49.7965 112.458 48.7351 112.155 48.1286L114.581 47.0673C114.732 47.3705 115.035 47.8254 115.339 48.2803C115.945 48.8868 116.855 49.4933 117.765 49.4933C118.674 49.4933 119.736 49.0384 120.342 48.2803C120.797 47.5221 121.1 46.764 121.1 45.7026V44.7929C119.281 47.0673 115.49 46.764 113.368 44.338C111.093 41.912 111.093 37.8182 113.368 35.3922C115.642 33.1178 118.978 32.8145 120.949 34.9373V33.8759H123.526V45.2478C123.526 48.1286 122.465 49.7965 121.1 50.8579C120.191 51.616 118.826 51.9193 117.613 51.9193C116.248 51.7676 114.884 51.3128 113.822 50.403ZM177.353 51.0095L179.931 44.9445L175.382 34.4824H177.96L181.144 41.912L184.328 34.4824H186.906L179.931 51.0095H177.353ZM165.072 45.2478C164.314 44.4896 164.01 43.4283 164.01 42.3669C164.01 41.4571 164.313 40.5474 164.92 39.9409C165.981 38.8795 167.498 38.4247 169.166 38.4247C170.227 38.4247 171.137 38.5763 171.895 39.0312C171.895 37.2117 170.379 36.4535 169.166 36.4535C168.104 36.4535 167.043 37.06 166.588 38.1214L164.314 37.2117C164.768 36.1503 165.981 34.1792 169.014 34.1792C170.53 34.1792 172.046 34.634 172.956 35.6954C173.866 36.7568 174.169 37.9698 174.169 39.6377V46.0059H171.592V44.9445C171.288 45.3994 170.682 45.7026 170.227 46.0059C169.62 46.3091 168.862 46.4608 168.104 46.4608C167.194 46.3091 165.83 46.0059 165.072 45.2478ZM84.2557 39.7893C84.2557 36.7568 86.53 33.421 90.6239 33.421C94.5661 33.421 96.9921 36.7568 96.9921 39.7893C96.9921 42.8218 94.7178 46.1575 90.6239 46.1575C86.53 46.1575 84.2557 42.8218 84.2557 39.7893ZM97.9019 39.7893C97.9019 36.7568 100.176 33.421 104.27 33.421C108.212 33.421 110.638 36.7568 110.638 39.7893C110.638 42.8218 108.364 46.1575 104.27 46.1575C100.328 46.1575 97.9019 42.8218 97.9019 39.7893ZM67.1221 43.125C63.3314 39.3344 63.483 33.1178 67.2737 29.1755C69.2448 27.2044 71.6708 26.2947 74.2484 26.2947C76.6744 26.2947 79.1004 27.2044 80.9199 29.0239L79.1004 30.995C76.3712 28.2658 71.974 28.4174 69.3964 31.1467C66.6672 34.0275 66.6672 38.4247 69.3964 41.3055C72.1257 44.1864 76.6744 44.338 79.4036 41.4572C80.3134 40.5474 80.6167 39.3344 80.7683 38.1214H74.4V35.3922H83.3459C83.4975 35.9987 83.4975 36.7568 83.4975 37.5149C83.4975 39.7893 82.5878 42.0637 81.0715 43.5799C79.4037 45.2478 76.9777 46.1575 74.5517 46.1575C71.8224 46.0059 69.0932 45.0961 67.1221 43.125ZM131.259 44.1864C128.985 41.7604 128.985 37.6665 131.259 35.0889C133.534 32.6629 137.324 32.6629 139.447 35.0889C140.205 35.847 140.66 36.9084 141.115 37.9698L132.776 41.4572C133.23 42.5185 134.292 43.4283 135.808 43.4283C137.173 43.4283 138.082 42.9734 138.992 41.6088L141.267 43.125C140.963 43.4283 140.66 43.7315 140.508 44.0348C137.931 46.6124 133.534 46.6124 131.259 44.1864ZM147.028 46.0059V29.1755H152.487C155.671 29.1755 158.249 31.4499 158.249 34.1792C158.249 36.9084 155.974 39.1828 153.093 39.1828H149.758V45.8543H147.028V46.0059ZM159.765 46.0059V29.1755H162.342V46.0059H159.765ZM125.498 45.7026V26.9012H128.227V45.7026H125.498ZM171.743 41.0023C171.137 40.5474 170.227 40.3958 169.317 40.3958C167.498 40.3958 166.436 41.3055 166.436 42.3669C166.436 43.4283 167.498 44.0348 168.559 44.0348C170.075 44.0348 171.743 42.8218 171.743 41.0023ZM94.1113 39.7893C94.1113 37.9698 92.8983 35.9987 90.6239 35.9987C88.3495 35.9987 87.1365 37.9698 87.1365 39.7893C87.1365 41.6088 88.3495 43.5799 90.6239 43.5799C92.7466 43.5799 94.1113 41.6088 94.1113 39.7893ZM107.757 39.7893C107.757 37.9698 106.544 35.9987 104.27 35.9987C101.996 35.9987 100.783 37.9698 100.783 39.7893C100.783 41.6088 101.996 43.5799 104.27 43.5799C106.544 43.5799 107.757 41.6088 107.757 39.7893ZM121.252 40.8507C121.252 40.699 121.252 40.5474 121.404 40.3958C121.404 40.2442 121.404 39.9409 121.404 39.7893C121.404 39.6377 121.404 39.3344 121.404 39.1828V39.0312C121.404 38.8795 121.252 38.5763 121.252 38.4247C120.797 36.9084 119.433 35.847 118.068 35.847C116.248 35.847 114.732 37.6665 114.732 39.6377C114.732 41.7604 116.248 43.4283 118.22 43.4283C119.433 43.5799 120.646 42.5185 121.252 40.8507ZM132.321 39.486L137.931 37.06C137.324 35.9987 136.415 35.6954 135.656 35.6954C133.382 35.847 132.017 38.273 132.321 39.486ZM155.519 34.3308C155.519 32.8145 154.306 31.7532 152.638 31.7532H149.606V37.06H152.79C154.306 37.06 155.519 35.847 155.519 34.3308Z" fill="#252B33" stroke="black" stroke-width="0.6" mask="url(#path-2-inside-1_3492_1182)"/>
<path d="M71.3675 15.2277H69.0915V14.1631H72.8854V17.1423C72.1555 17.9928 70.9996 18.5634 69.548 18.5634C67.0464 18.5634 65.1493 16.8044 65.1493 14.3163C65.1493 12.9897 65.6274 11.9307 66.3915 11.2029C67.1568 10.4741 68.2178 10.0692 69.3964 10.0692C70.9392 10.0692 71.9392 10.7362 72.6671 11.6972L71.7051 12.2984C71.2152 11.7098 70.4419 11.2854 69.3964 11.2854C68.5249 11.2854 67.7647 11.6031 67.2225 12.1653C66.6806 12.7272 66.3655 13.5242 66.3655 14.4679C66.3655 15.4116 66.6806 16.2086 67.2225 16.7706C67.7647 17.3328 68.5249 17.6504 69.3964 17.6504C70.3513 17.6504 71.1462 17.1757 71.4736 16.8484L71.5175 16.8044V16.7423V15.3777V15.2277H71.3675Z" fill="#252B33" stroke="black" stroke-width="0.3"/>
<path d="M76.2196 17.499H80.4667V18.5597L75.005 18.4159V10.221H80.4667V11.2857H76.2196H76.0696V11.4357V13.5584V13.7084H76.2196H80.3151V14.773H76.2196H76.0696V14.923V17.349V17.499H76.2196Z" fill="#252B33" stroke="black" stroke-width="0.3"/>
<path d="M86.2283 11.4357V18.412H85.012V11.4357V11.2857H84.862H82.4344V10.221H88.8059V11.2857H86.3783H86.2283V11.4357Z" fill="#252B33" stroke="black" stroke-width="0.3"/>
<path d="M94.2613 18.412V10.221H95.4776V18.412H94.2613Z" fill="#252B33" stroke="black" stroke-width="0.3"/>
<path d="M101.088 11.4357V18.412H99.8714V11.4357V11.2857H99.7214H97.2938V10.221H103.665V11.2857H101.238H101.088V11.4357Z" fill="#252B33" stroke="black" stroke-width="0.3"/>
<path d="M108.817 14.3163C108.817 13.0637 109.259 12.0037 110.005 11.2572C110.752 10.5107 111.812 10.0692 113.064 10.0692C114.317 10.0692 115.377 10.5107 116.123 11.2572C116.87 12.0037 117.311 13.0637 117.311 14.3163C117.311 15.5689 116.87 16.6289 116.123 17.3754C115.377 18.1219 114.317 18.5634 113.064 18.5634C110.573 18.5634 108.817 16.6629 108.817 14.3163ZM115.944 14.3163C115.944 13.378 115.67 12.5802 115.145 12.0157C114.62 11.4497 113.857 11.1338 112.913 11.1338C111.152 11.1338 109.882 12.5759 109.882 14.3163C109.882 15.2547 110.156 16.0524 110.68 16.6169C111.206 17.1829 111.968 17.4988 112.913 17.4988C113.863 17.4988 114.624 17.1413 115.147 16.5581C115.668 15.977 115.944 15.1814 115.944 14.3163Z" fill="#252B33" stroke="black" stroke-width="0.3"/>
<path d="M125.193 15.9844V10.221H126.409V18.412H125.119L120.767 12.409L120.496 12.0346V12.497V18.412H119.279V10.221H120.57L124.922 16.0739L125.193 16.4375V15.9844Z" fill="#252B33" stroke="black" stroke-width="0.3"/>
<path d="M18.15 13.002C18.15 12.0892 18.3928 11.4078 18.794 10.9724L18.8005 10.967L37.4522 29.5983V29.8959L18.8168 48.5313L18.8083 48.5241C18.3939 48.1067 18.15 47.4277 18.15 46.5127V13.002Z" fill="url(#paint0_linear_3492_1182)" stroke="black" stroke-width="0.3"/>
<path d="M43.8712 36.0512L37.7359 29.914V29.5999L43.8729 23.4629L43.907 23.4841L43.907 23.4842L43.9121 23.4871L51.322 27.6979L51.3225 27.6982C52.356 28.2808 52.8375 29.0307 52.8375 29.7508C52.8375 30.4711 52.3557 31.2252 51.3219 31.816C51.3219 31.816 51.3218 31.816 51.3217 31.8161L43.9145 36.0254L43.9112 36.0271L43.9035 36.0316L43.886 36.0421L43.8712 36.0512Z" fill="url(#paint1_linear_3492_1182)" stroke="black" stroke-width="0.3"/>
<path d="M18.9028 48.6524L37.5858 29.9695L43.7388 36.1245L21.767 48.6223C21.7669 48.6224 21.7667 48.6225 21.7666 48.6225C20.5686 49.2913 19.5393 49.231 18.9028 48.6524Z" fill="url(#paint2_linear_3492_1182)" stroke="black" stroke-width="0.3"/>
<path d="M21.766 10.9103L43.7387 23.3924L37.5837 29.5453L18.9028 10.8807C19.5402 10.2998 20.5716 10.2273 21.7657 10.9101L21.766 10.9103Z" fill="url(#paint3_linear_3492_1182)" stroke="black" stroke-width="0.3"/>
<g opacity="0.2">
<mask id="path-14-inside-2_3492_1182" fill="white">
<path fill-rule="evenodd" clip-rule="evenodd" d="M43.8488 36.0222L21.8565 48.5176C20.6276 49.2241 19.5319 49.175 18.8253 48.5339L18.7065 48.6527L18.8253 48.7531C19.5319 49.3921 20.6276 49.4433 21.8565 48.7367L44.0003 36.1574L43.8488 36.0222Z"/>
</mask>
<path fill-rule="evenodd" clip-rule="evenodd" d="M43.8488 36.0222L21.8565 48.5176C20.6276 49.2241 19.5319 49.175 18.8253 48.5339L18.7065 48.6527L18.8253 48.7531C19.5319 49.3921 20.6276 49.4433 21.8565 48.7367L44.0003 36.1574L43.8488 36.0222Z" fill="#252B33"/>
<path d="M21.8565 48.5176L21.7083 48.2567L21.707 48.2575L21.8565 48.5176ZM18.8253 48.5339L19.0269 48.3118L18.8153 48.1197L18.6132 48.3218L18.8253 48.5339ZM18.7065 48.6527L18.4944 48.4406L18.2637 48.6713L18.5129 48.8819L18.7065 48.6527ZM18.8253 48.7531L19.0267 48.5305L19.0189 48.5239L18.8253 48.7531ZM21.8565 48.7367L21.7083 48.4759L21.707 48.4766L21.8565 48.7367ZM44.0003 36.1574L44.1485 36.4182L44.512 36.2118L44.2 35.9335L44.0003 36.1574ZM43.7006 35.7614L21.7083 48.2567L22.0047 48.7784L43.997 36.2831L43.7006 35.7614ZM21.707 48.2575C20.5454 48.9254 19.6031 48.8345 19.0269 48.3118L18.6238 48.7561C19.4607 49.5154 20.7099 49.5229 22.006 48.7776L21.707 48.2575ZM18.6132 48.3218L18.4944 48.4406L18.9187 48.8649L19.0375 48.7461L18.6132 48.3218ZM18.5129 48.8819L18.6317 48.9823L19.0189 48.5239L18.9001 48.4236L18.5129 48.8819ZM18.6241 48.9756C19.4607 49.7321 20.7094 49.7424 22.006 48.9968L21.707 48.4766C20.5459 49.1442 19.6032 49.052 19.0266 48.5306L18.6241 48.9756ZM22.0047 48.9976L44.1485 36.4182L43.8522 35.8965L21.7083 48.4759L22.0047 48.9976ZM44.2 35.9335L44.0485 35.7983L43.6491 36.2461L43.8007 36.3813L44.2 35.9335Z" fill="black" mask="url(#path-14-inside-2_3492_1182)"/>
</g>
<g opacity="0.12">
<mask id="path-16-inside-3_3492_1182" fill="white">
<path fill-rule="evenodd" clip-rule="evenodd" d="M51.394 31.7276L43.8325 36.0224L43.9677 36.1576L51.3776 31.9467C52.4386 31.3405 52.9608 30.5499 52.9608 29.7573C52.8932 30.4823 52.3546 31.1725 51.394 31.7276Z"/>
</mask>
<path fill-rule="evenodd" clip-rule="evenodd" d="M51.394 31.7276L43.8325 36.0224L43.9677 36.1576L51.3776 31.9467C52.4386 31.3405 52.9608 30.5499 52.9608 29.7573C52.8932 30.4823 52.3546 31.1725 51.394 31.7276Z" fill="#252B33"/>
<path d="M43.8325 36.0224L43.6844 35.7615L43.3419 35.9561L43.6204 36.2345L43.8325 36.0224ZM43.9677 36.1576L43.7556 36.3697L43.9172 36.5313L44.1159 36.4184L43.9677 36.1576ZM51.3776 31.9467L51.5259 32.2076L51.5265 32.2072L51.3776 31.9467ZM52.9608 29.7573H53.2608L52.6621 29.7295L52.9608 29.7573ZM51.2459 31.4667L43.6844 35.7615L43.9807 36.2833L51.5422 31.9884L51.2459 31.4667ZM43.6204 36.2345L43.7556 36.3697L44.1798 35.9454L44.0447 35.8103L43.6204 36.2345ZM44.1159 36.4184L51.5259 32.2075L51.2294 31.6859L43.8195 35.8967L44.1159 36.4184ZM51.5265 32.2072C52.6423 31.5696 53.2608 30.6956 53.2608 29.7573H52.6608C52.6608 30.4042 52.2348 31.1114 51.2288 31.6862L51.5265 32.2072ZM52.6621 29.7295C52.6073 30.3174 52.1628 30.9369 51.2439 31.4678L51.5441 31.9873C52.5464 31.4082 53.1792 30.6473 53.2595 29.7852L52.6621 29.7295Z" fill="black" mask="url(#path-16-inside-3_3492_1182)"/>
</g>
<g opacity="0.25">
<mask id="path-18-inside-4_3492_1182" fill="white">
<path fill-rule="evenodd" clip-rule="evenodd" d="M21.8402 10.9987L51.394 27.7888C52.3545 28.3275 52.8932 29.0341 52.9771 29.7591C52.9771 28.9685 52.4549 28.1759 51.394 27.5697L21.8402 10.7795C19.7183 9.56706 18 10.5768 18 13.0017V13.2208C18 10.7959 19.7183 9.80259 21.8402 10.9987Z"/>
</mask>
<path fill-rule="evenodd" clip-rule="evenodd" d="M21.8402 10.9987L51.394 27.7888C52.3545 28.3275 52.8932 29.0341 52.9771 29.7591C52.9771 28.9685 52.4549 28.1759 51.394 27.5697L21.8402 10.7795C19.7183 9.56706 18 10.5768 18 13.0017V13.2208C18 10.7959 19.7183 9.80259 21.8402 10.9987Z" fill="white"/>
<path d="M21.8402 10.9987L21.9883 10.7378L21.9875 10.7373L21.8402 10.9987ZM51.394 27.7888L51.2458 28.0497L51.2472 28.0505L51.394 27.7888ZM52.9771 29.7591L52.6791 29.7936L53.2771 29.7591H52.9771ZM51.394 27.5697L51.5428 27.3092L51.5422 27.3088L51.394 27.5697ZM21.8402 10.7795L21.6913 11.04L21.692 11.0404L21.8402 10.7795ZM21.692 11.2595L51.2458 28.0497L51.5422 27.528L21.9883 10.7378L21.692 11.2595ZM51.2472 28.0505C52.1588 28.5617 52.6101 29.1981 52.6791 29.7936L53.2751 29.7246C53.1762 28.8701 52.5502 28.0933 51.5407 27.5272L51.2472 28.0505ZM53.2771 29.7591C53.2771 28.8229 52.6588 27.9469 51.5428 27.3092L51.2451 27.8302C52.251 28.4049 52.6771 29.1141 52.6771 29.7591H53.2771ZM51.5422 27.3088L21.9883 10.5187L21.692 11.0404L51.2458 27.8305L51.5422 27.3088ZM21.989 10.5191C20.8722 9.88091 19.7927 9.79098 18.9736 10.2672C18.1548 10.7433 17.7 11.7249 17.7 13.0017H18.3C18.3 11.8535 18.7044 11.1178 19.2752 10.7859C19.8457 10.4542 20.6863 10.4657 21.6913 11.04L21.989 10.5191ZM17.7 13.0017V13.2208H18.3V13.0017H17.7ZM18.3 13.2208C18.3 12.0729 18.7042 11.3415 19.2746 11.0116C19.8458 10.6812 20.6872 10.6931 21.6928 11.26L21.9875 10.7373C20.8713 10.1081 19.7927 10.0187 18.9742 10.4922C18.155 10.9661 17.7 11.9438 17.7 13.2208H18.3Z" fill="black" mask="url(#path-18-inside-4_3492_1182)"/>
</g>
<defs>
<linearGradient id="paint0_linear_3492_1182" x1="35.9161" y1="12.6418" x2="5.83891" y2="20.6559" gradientUnits="userSpaceOnUse">
<stop stop-color="#00A0FF"/>
<stop offset="0.007" stop-color="#00A1FF"/>
<stop offset="0.26" stop-color="#00BEFF"/>
<stop offset="0.512" stop-color="#00D2FF"/>
<stop offset="0.76" stop-color="#00DFFF"/>
<stop offset="1" stop-color="#00E3FF"/>
</linearGradient>
<linearGradient id="paint1_linear_3492_1182" x1="54.1572" y1="29.7579" x2="17.4845" y2="29.7579" gradientUnits="userSpaceOnUse">
<stop stop-color="#FFE000"/>
<stop offset="0.409" stop-color="#FFBD00"/>
<stop offset="0.775" stop-color="#FFA500"/>
<stop offset="1" stop-color="#FF9C00"/>
</linearGradient>
<linearGradient id="paint2_linear_3492_1182" x1="40.5048" y1="33.2391" x2="16.3587" y2="73.8785" gradientUnits="userSpaceOnUse">
<stop stop-color="#FF3A44"/>
<stop offset="1" stop-color="#C31162"/>
</linearGradient>
<linearGradient id="paint3_linear_3492_1182" x1="13.9337" y1="-0.283411" x2="24.706" y2="17.8668" gradientUnits="userSpaceOnUse">
<stop stop-color="#32A071"/>
<stop offset="0.069" stop-color="#2DA771"/>
<stop offset="0.476" stop-color="#15CF74"/>
<stop offset="0.801" stop-color="#06E775"/>
<stop offset="1" stop-color="#00F076"/>
</linearGradient>
</defs>
</svg>
